<?xml version="1.0" encoding="UTF-8"?>
<!-- Generator: Adobe Illustrator 28.2.0, SVG Export Plug-In . SVG Version: 6.00 Build 0)  -->
<svg xmlns="http://www.w3.org/2000/svg" xmlns:xlink="http://www.w3.org/1999/xlink" version="1.1" id="Livello_1" x="0px" y="0px" viewBox="0 0 447.3 170.3" style="enable-background:new 0 0 447.3 170.3;" xml:space="preserve">
<style type="text/css">
	.st0{fill:#585857;}
	.st1{fill:#D21317;}
</style>
<g>
	<path class="st0" d="M444.6,140.8l-32.3-88.9c-0.3-0.8-1-1.3-1.8-1.3c-0.8,0-1.6,0.5-1.8,1.3l-3.7,10.2v1.3l28.1,78.7   c0.3,0.8,1,1.3,1.8,1.3h7.9c0.6,0,1.2-0.3,1.6-0.8C444.7,142.1,444.8,141.4,444.6,140.8"></path>
	<path class="st0" d="M166.7,140.8l-32.3-88.9c-0.3-0.8-1-1.3-1.8-1.3c-0.8,0-1.6,0.5-1.8,1.3L127,62.1v1.3l28.1,78.7   c0.3,0.8,1,1.3,1.8,1.3h7.9c0.6,0,1.2-0.3,1.6-0.8C166.8,142.1,166.9,141.4,166.7,140.8"></path>
	<path class="st0" d="M406.4,44c-0.4-0.5-1-0.8-1.6-0.9l-6.9,0c-0.8,0-1.6,0.5-1.8,1.3l-35.5,96.4c-0.2,0.6-0.1,1.3,0.2,1.8   c0.4,0.5,1,0.8,1.6,0.8h7.9c0.8,0,1.6-0.5,1.8-1.3L403,55.5l3.7-9.7C406.9,45.2,406.8,44.5,406.4,44"></path>
	<path class="st0" d="M227.7,53v56.2c0,7.6-2.4,13.7-6.5,17.9c-4.1,4.2-10,6.7-17.2,6.7c-7.3,0-13.1-2.5-17.2-6.7   c-4.1-4.2-6.5-10.3-6.5-17.9V45.1l-0.3-1.1l-10.9,9v57.2c0,9.9,3.6,18.5,9.9,24.5c6.2,6.1,15,9.5,25.1,9.5h0   c10.1,0,18.9-3.5,25.1-9.5c6.2-6,9.9-14.6,9.9-24.5V45.1l-0.3-1.1L227.7,53z"></path>
	<path class="st0" d="M307.2,127.5l-1.4-1.4c-5,5.2-11.9,6.9-19.3,6.9h-21.3V59l6.6-5.5h14.7c7.5,0,14.3,1.7,19.3,6.9   c6,6,6.7,17.4,6.6,27.4c0,1.4,0,2.8,0,4.1c0,1.3,0,2.7,0,4.2c0.1,10.5-0.6,24.2-6.6,30L307.2,127.5z M323.6,88.8   c0-12.3-0.2-26.6-9.9-36.4c-6.1-6.1-15.1-9.4-25.5-9.4h-21.3l-13,10.8v87.6l0.6,1.4l1.4,0.6h32.4h0c10.4,0,19.4-3.3,25.5-9.4   c9.8-9.9,9.9-26.4,9.9-39v-3.1V88.8"></path>
	<polygon class="st0" points="338.8,141.5 339.3,142.9 340.7,143.4 348,143.4 349.4,142.9 350,141.5 350,62.9 338.8,72.3  "></polygon>
	<polygon class="st0" points="350,45.1 349.4,43.7 348,43.1 340.7,43.1 339.3,43.7 338.8,45.1 338.8,62.9 350,53.6  "></polygon>
	<rect x="338.8" y="155.8" class="st0" width="4.7" height="14"></rect>
	<polygon class="st0" points="351.2,155.8 366.1,155.8 366.1,159 361,159 361,169.8 356.3,169.8 356.3,159 351.2,159  "></polygon>
	<path class="st0" d="M379.6,159.3L379.6,159.3l-2,5.3h3.9L379.6,159.3z M376.8,155.8h5.7l6,14h-5l-0.8-2.3h-6.1l-0.8,2.3h-5   L376.8,155.8z"></path>
	<polygon class="st0" points="395.7,155.8 400.3,155.8 400.3,166.6 408.9,166.6 408.9,169.8 395.7,169.8  "></polygon>
	<rect x="416.9" y="155.8" class="st0" width="4.7" height="14"></rect>
	<path class="st0" d="M437.7,159.3L437.7,159.3l-2,5.3h3.9L437.7,159.3z M434.8,155.8h5.7l6,14h-5l-0.8-2.3h-6.1l-0.8,2.3h-5   L434.8,155.8z"></path>
	<path class="st1" d="M94.6,139c-1,2.8-4.4,4.7-6.8,4.7H56c-2,0-3.8-1.1-2.9-3.6l31.8-90.2c1.1-3.9,4.6-5.3,6.9-5.3l32.6,0   c2.1,0,3,0.6,2.3,2.7L94.6,139z"></path>
	<path class="st0" d="M113.7,103.8h15c2.1,0,3,0.6,2.3,2.7l-4.6,13.6c-1,2.8-4.4,4.7-6.8,4.7h-13.3L113.7,103.8z"></path>
	<path class="st0" d="M391.6,103.8h15c2.1,0,3,0.6,2.3,2.7l-4.6,13.6c-1,2.8-4.4,4.7-6.8,4.7h-13.3L391.6,103.8z"></path>
	<path class="st1" d="M32.3,71.4l6,27.1c-1.3,3.7-8.8,25.3-8.8,25.3l-5.5,15.8c-0.4,1.2-0.6,2.8-0.2,4.2H10.7c-2,0-3.2-1-2.4-3.4   l23.9-68.4L32.3,71.4z"></path>
	<path class="st0" d="M54.6,71.4l6,27.1c-1.3,3.7-8.8,25.3-8.8,25.3l-5.5,15.8c-0.4,1.2-0.6,2.8-0.2,4.2H33c-2,0-3.2-1-2.4-3.4   l23.9-68.4L54.6,71.4z"></path>
	<path class="st1" d="M29.7,59.5C29.3,57.6,19.5,13.8,19,11.6C14.2,4.3,8.7,0.5,1.6,0.5H0.8l19.3,86.4   C20.1,86.9,26.6,68.1,29.7,59.5"></path>
	<path class="st0" d="M52.1,59.5c-0.4-1.9-10.1-45.7-10.6-47.9C36.6,4.3,31.1,0.5,24.1,0.5h-0.9l19.3,86.4   C42.5,86.9,49,68.1,52.1,59.5"></path>
	<path class="st1" d="M77.2,51.7c-3.5-19.9-9-33.9-13.3-40C59,4.3,53.5,0.5,46.5,0.5h-0.9l19.3,86.4C64.9,86.9,74.1,60.3,77.2,51.7"></path>
</g>
</svg>
