<svg id="bb6c1142-9ba1-4636-a290-fbf222fec561" data-name="Livello 1" xmlns="http://www.w3.org/2000/svg" viewBox="0 0 99.21 39.75"><path d="M49.87,14.73h2.49a1.83,1.83,0,0,0,1.85-1.85V10.23a9.56,9.56,0,0,0-19.11,0V30.87a9.56,9.56,0,1,0,19.11,0V28a1.83,1.83,0,0,0-1.85-1.85H49.87A1.82,1.82,0,0,0,48,28v2.88a3.38,3.38,0,0,1-6.75,0V10.23a3.38,3.38,0,0,1,6.75,0v2.65a1.82,1.82,0,0,0,1.84,1.85" transform="translate(-0.71 -0.68)"/><path d="M70.55,10.31V17.5H63.73V10.31a3.41,3.41,0,0,1,3.45-3.37,3.37,3.37,0,0,1,3.37,3.37M67.18.75a9.61,9.61,0,0,0-9.63,9.56V38.58a1.82,1.82,0,0,0,1.84,1.85h2.5a1.82,1.82,0,0,0,1.84-1.85V23.68h6.82v14.9a1.83,1.83,0,0,0,1.85,1.85h2.49a1.83,1.83,0,0,0,1.85-1.85V10.31A9.57,9.57,0,0,0,67.18.75" transform="translate(-0.71 -0.68)"/><path d="M93.74,30.79a3.38,3.38,0,0,1-3.38,3.37H86.92V23.6h3.44a3.42,3.42,0,0,1,3.38,3.45ZM86.92,17.42V6.86h3.44a3.42,3.42,0,0,1,3.38,3.45v3.74a3.38,3.38,0,0,1-3.38,3.37Zm13-7.11A9.61,9.61,0,0,0,90.36.68H83.82a3.05,3.05,0,0,0-3.09,3.09V37.33a3.1,3.1,0,0,0,3.09,3.1h6.54a9.62,9.62,0,0,0,9.56-9.64V27.05a9.4,9.4,0,0,0-2.54-6.54,9.26,9.26,0,0,0,2.54-6.46Z" transform="translate(-0.71 -0.68)"/><path d="M26.67,15.64a5,5,0,1,0,5,5,5,5,0,0,0-5-5" transform="translate(-0.71 -0.68)"/><path d="M15.48,14.73H18a1.82,1.82,0,0,0,1.84-1.85V10.23a9.56,9.56,0,0,0-19.11,0c0,2.64,0,2.74,2,5.35L12.89,29.07a3.71,3.71,0,0,1,.73,2.15h0a2.87,2.87,0,0,1,0,.31l0,.12c0,.06,0,.13,0,.19a.5.5,0,0,1-.05.13l-.06.17-.06.14-.07.15-.08.13-.08.14-.09.12a.64.64,0,0,1-.1.13l-.1.12-.1.12-.11.11-.12.11-.12.09-.13.1-.13.09-.13.08-.14.08-.14.07-.15.06-.15.06-.15.05-.16,0-.15,0-.17,0-.16,0h-.32a3.38,3.38,0,0,1-3.38-3.37V28.22h0a1.82,1.82,0,0,0-1.84-1.84H2.56A1.82,1.82,0,0,0,.71,28.22h0v2.65h0a9.54,9.54,0,0,0,4.22,7.92c.12.09.25.17.38.25a9.27,9.27,0,0,0,.82.44,9.5,9.5,0,0,0,8.28,0c.27-.13.54-.28.81-.44l.39-.25a9.56,9.56,0,0,0,4.21-7.92h0a9.67,9.67,0,0,0-.17-2.42h0a3.9,3.9,0,0,0-.42-1l-.06-.1v0c-.3-.48-.72-1-1.32-1.85L7.89,12.37,7.64,12a3.68,3.68,0,0,1-.73-2.14h0a3.37,3.37,0,0,1,6.73.34v2.65a1.82,1.82,0,0,0,1.84,1.85" transform="translate(-0.71 -0.68)"/></svg>